<?xml version="1.0" standalone="no"?>
<!DOCTYPE svg PUBLIC "-//W3C//DTD SVG 20010904//EN"
 "http://www.w3.org/TR/2001/REC-SVG-20010904/DTD/svg10.dtd">
<svg version="1.0" xmlns="http://www.w3.org/2000/svg"
 width="512.000000pt" height="512.000000pt" viewBox="0 0 512.000000 512.000000"
 preserveAspectRatio="xMidYMid meet">

<g transform="translate(0.000000,512.000000) scale(0.100000,-0.100000)"
fill="#000000" stroke="none">
<path d="M1840 4035 c-383 -79 -682 -381 -756 -763 -20 -108 -20 -1316 0
-1424 62 -320 287 -593 587 -711 161 -64 123 -61 844 -65 722 -4 747 -2 900
52 299 107 508 333 607 657 22 73 22 83 26 734 4 716 2 746 -50 895 -112 321
-391 561 -726 626 -104 20 -1334 19 -1432 -1z m1400 -429 c183 -60 311 -189
367 -371 17 -55 18 -106 18 -675 0 -569 -1 -620 -18 -675 -57 -184 -188 -315
-372 -372 -55 -17 -106 -18 -675 -18 -607 0 -616 0 -685 22 -129 41 -255 142
-314 252 -67 128 -66 111 -66 791 0 569 1 620 18 675 64 208 229 353 437 385
30 4 321 7 645 6 538 -2 595 -3 645 -20z"/>
</g>
</svg>
